<svg width="101" height="13" viewBox="0 0 101 13" fill="none" xmlns="http://www.w3.org/2000/svg">
<path d="M11.2222 12.1177H8.71237L2.4233 3.70415V12.1177H0V0.117676H2.55312L8.79892 8.49731V0.117676H11.2222V12.1177Z" fill="white"/>
<path d="M16.8333 12.1177H14.5889V0.117676H16.8333V12.1177Z" fill="white"/>
<path d="M30.3002 2.27641H22.9223V5.33587H29.8672V7.47749H22.9223V12.1177H20.2002V0.117676H30.3002V2.27641Z" fill="white"/>
<path d="M42.6441 2.31029H38.4659V12.1177H35.6162V2.31029H31.4219V0.117676H42.6441V2.31029Z" fill="white"/>
<path d="M53.8671 12.1177H50.8128L49.8872 9.85696H44.3031L43.3775 12.1177H40.4004L45.6605 0.117676H48.6068L53.8671 12.1177ZM49.0079 7.73244L47.1106 3.04127L45.1823 7.73244H49.0079Z" fill="white"/>
<path d="M54.9893 0.117676H62.0108C62.4196 0.117676 62.7568 0.129137 63.0226 0.151728C63.2883 0.174319 63.6307 0.265005 64.0498 0.423626C64.4688 0.570952 64.801 0.797666 65.0463 1.10361C65.4551 1.61352 65.6595 2.26495 65.6595 3.05822C65.6595 4.32734 65.0616 5.17725 63.8659 5.60776C65.4194 6.0044 66.2012 7.01292 66.2115 8.63318C66.2115 9.47179 66.053 10.146 65.7362 10.6559C65.5317 10.9959 65.2967 11.2734 65.0309 11.4887C64.7755 11.7041 64.4739 11.8571 64.1264 11.9476C63.7892 12.027 63.5132 12.078 63.2986 12.1006C63.0839 12.112 62.7926 12.1177 62.4247 12.1177H54.9893V0.117676ZM57.6721 4.82596H61.7501C62.6189 4.82596 63.0532 4.38398 63.0532 3.50019C63.0431 2.62769 62.6137 2.19137 61.7655 2.19137H57.6721V4.82596ZM57.6721 10.0099H61.9035C62.9767 10.0099 63.5132 9.46614 63.5132 8.37822C63.5132 7.40375 63.0328 6.91659 62.0721 6.91659H57.6721V10.0099Z" fill="white"/>
<path d="M76.3116 12.1177H68.4561V0.117676H70.8997V9.90796H76.3116V12.1177Z" fill="white"/>
<path d="M88.6558 12.1177H77.4336V0.117676H88.3247V2.27641H80.3633V4.97893H88.0599V7.12055H80.3633V9.97605H88.6558V12.1177Z" fill="white"/>
<path d="M89.7773 8.93373L92.1768 8.27768C92.6934 9.45094 93.8807 10.0377 95.7386 10.0377C95.9474 10.0377 96.161 10.0269 96.3796 10.0057C96.598 9.97363 96.8763 9.91499 97.2141 9.82963C97.552 9.74441 97.8251 9.59494 98.0338 9.38168C98.2524 9.15763 98.3617 8.88041 98.3617 8.54972C98.3617 8.40041 98.3368 8.26705 98.2871 8.14963C98.2474 8.03236 98.1629 7.93104 98.0338 7.84568C97.9146 7.76031 97.8002 7.69104 97.691 7.63772C97.5916 7.58441 97.4327 7.53094 97.2141 7.47763C96.9955 7.42431 96.8166 7.38694 96.6776 7.36568C96.5485 7.33363 96.3397 7.29641 96.0516 7.25373C95.217 7.11504 94.6358 7.01904 94.308 6.96573C93.9801 6.90163 93.6175 6.81641 93.2199 6.70963C92.8226 6.60299 92.4898 6.48041 92.2215 6.34173C91.1186 5.78699 90.5672 4.89094 90.5672 3.65372C90.5672 2.85367 90.8007 2.18167 91.2677 1.63772C91.7346 1.08299 92.3259 0.693674 93.0412 0.469623C93.7565 0.234939 94.5712 0.117676 95.4853 0.117676C98.2176 0.117676 100.056 1.01904 101 2.82162L98.5107 3.49363C98.0635 2.58694 97.0302 2.13368 95.4108 2.13368C93.8807 2.13368 93.1157 2.57099 93.1157 3.44562C93.1157 3.90436 93.3939 4.22972 93.9503 4.42172C94.1887 4.49631 95.3164 4.72568 97.3334 5.10968C97.7009 5.18441 98.004 5.24836 98.2424 5.30167C98.4809 5.35499 98.7839 5.46162 99.1515 5.62172C99.5291 5.78167 99.8272 5.96836 100.046 6.18162C100.264 6.39504 100.458 6.68836 100.627 7.06173C100.796 7.42431 100.88 7.84568 100.88 8.32568C100.88 10.8537 99.0969 12.1177 95.53 12.1177C94.0397 12.1177 92.8374 11.8564 91.9233 11.3337C91.0193 10.811 90.3039 10.011 89.7773 8.93373Z" fill="white"/>
</svg>
