<svg width="16" height="14" viewBox="0 0 16 14" fill="currentColor" xmlns="http://www.w3.org/2000/svg">
<path d="M13.2269 1.90715C12.2394 1.42215 11.1946 1.07754 10.1202 0.882423C9.9864 1.13637 9.83005 1.47792 9.72223 1.74965C8.56387 1.56683 7.41617 1.56683 6.27911 1.74965C6.17134 1.47798 6.01146 1.13637 5.8764 0.882423C4.80099 1.07763 3.75532 1.42312 2.76729 1.90968C0.80117 5.02819 0.26817 8.06916 0.53464 11.0671C1.8387 12.0892 3.10246 12.7102 4.34493 13.1165C4.65372 12.6708 4.92668 12.1989 5.16099 11.7057C4.71489 11.5275 4.28483 11.3078 3.87593 11.0493C3.98354 10.9656 4.08861 10.8784 4.19099 10.7877C6.66876 12.0041 9.36099 12.0041 11.8092 10.7877C11.9121 10.8778 12.0171 10.965 12.1242 11.0493C11.7147 11.3085 11.2838 11.5286 10.8368 11.707C11.0725 12.2022 11.3449 12.6745 11.6529 13.1177C12.8965 12.7115 14.1615 12.0905 15.4655 11.0671C15.7782 7.59177 14.9314 4.57865 13.2269 1.90709V1.90715ZM5.49858 9.22342C4.75476 9.22342 4.14476 8.49456 4.14476 7.60702C4.14476 6.71949 4.74176 5.98939 5.49858 5.98939C6.25546 5.98939 6.8654 6.71819 6.8524 7.60702C6.85358 8.49456 6.25546 9.22342 5.49858 9.22342ZM10.5016 9.22342C9.75775 9.22342 9.14781 8.49456 9.14781 7.60702C9.14781 6.71949 9.74475 5.98939 10.5016 5.98939C11.2585 5.98939 11.8684 6.71819 11.8554 7.60702C11.8554 8.49456 11.2585 9.22342 10.5016 9.22342Z" fill="currentColor"/>
</svg>
