<svg width="26" height="12" viewBox="0 0 26 12" fill="none" xmlns="http://www.w3.org/2000/svg">
<path d="M26 6C26.0002 7.18665 25.6313 8.34669 24.94 9.3334C24.2487 10.3201 23.2661 11.0892 22.1164 11.5433C20.9667 11.9974 19.7016 12.1162 18.4812 11.8847C17.2607 11.6531 16.1396 11.0816 15.2598 10.2425L15.2084 10.1895L8.9318 3.43131C8.40115 2.93456 7.72847 2.59833 6.99816 2.46481C6.26785 2.3313 5.51246 2.40645 4.82678 2.68083C4.1411 2.95522 3.55568 3.41661 3.14398 4.00711C2.73229 4.59761 2.51266 5.29091 2.51266 6C2.51266 6.70909 2.73229 7.40239 3.14398 7.99289C3.55568 8.58339 4.1411 9.04478 4.82678 9.31917C5.51246 9.59355 6.26785 9.6687 6.99816 9.53518C7.72847 9.40167 8.40115 9.06544 8.9318 8.56869L9.25475 8.22073C9.36429 8.10256 9.49716 8.00611 9.64578 7.9369C9.79441 7.8677 9.95587 7.82708 10.121 7.81738C10.286 7.80768 10.4515 7.82908 10.6079 7.88036C10.7643 7.93164 10.9086 8.01179 11.0326 8.11624C11.1565 8.2207 11.2576 8.34741 11.3302 8.48913C11.4028 8.63086 11.4454 8.78483 11.4555 8.94225C11.4657 9.09968 11.4433 9.25747 11.3895 9.40662C11.3357 9.55577 11.2517 9.69337 11.1421 9.81154L10.7909 10.1895L10.7395 10.2425C9.85959 11.0814 8.7386 11.6527 7.51824 11.8841C6.29788 12.1155 5.03297 11.9966 3.88346 11.5425C2.73394 11.0884 1.75144 10.3195 1.0602 9.33291C0.368949 8.34636 0 7.1865 0 6C0 4.8135 0.368949 3.65364 1.0602 2.66708C1.75144 1.68053 2.73394 0.911588 3.88346 0.457486C5.03297 0.00338542 6.29788 -0.11548 7.51824 0.115921C8.7386 0.347323 9.85959 0.918598 10.7395 1.75751L10.7909 1.8105L17.0675 8.56869C17.5981 9.06544 18.2708 9.40167 19.0011 9.53518C19.7314 9.6687 20.4868 9.59355 21.1725 9.31917C21.8581 9.04478 22.4436 8.58339 22.8553 7.99289C23.267 7.40239 23.4866 6.70909 23.4866 6C23.4866 5.29091 23.267 4.59761 22.8553 4.00711C22.4436 3.41661 21.8581 2.95522 21.1725 2.68083C20.4868 2.40645 19.7314 2.3313 19.0011 2.46481C18.2708 2.59833 17.5981 2.93456 17.0675 3.43131L16.7445 3.77927C16.635 3.89744 16.5021 3.99389 16.3535 4.06309C16.2048 4.1323 16.0434 4.17292 15.8783 4.18262C15.7132 4.19232 15.5477 4.17092 15.3913 4.11964C15.2349 4.06836 15.0906 3.98821 14.9667 3.88375C14.8428 3.7793 14.7416 3.65259 14.6691 3.51087C14.5965 3.36914 14.5539 3.21517 14.5437 3.05775C14.5335 2.90032 14.556 2.74253 14.6098 2.59338C14.6635 2.44423 14.7476 2.30663 14.8571 2.18846L15.2084 1.8105L15.2598 1.75751C16.1396 0.918351 17.2607 0.346859 18.4812 0.115316C19.7016 -0.116226 20.9667 0.00258028 22.1164 0.456711C23.2661 0.910841 24.2487 1.67989 24.94 2.6666C25.6313 3.65331 26.0002 4.81335 26 6Z" fill="white"/>
</svg>
