<svg width="24" height="24" viewBox="0 0 24 24" fill="none" xmlns="http://www.w3.org/2000/svg">
<path d="M23.8737 0.325661C23.864 0.278238 23.8409 0.234588 23.8072 0.199829C23.7735 0.16507 23.7306 0.140642 23.6836 0.129409C20.5458 -0.63844 13.2959 2.09783 9.36799 6.02769C8.66742 6.72324 8.02874 7.47857 7.45921 8.28512C6.24795 8.17788 5.03668 8.26743 4.00434 8.71784C1.09162 10.001 0.24357 13.3491 0.00731696 14.7893C-0.00608378 14.8682 -0.00102901 14.949 0.0220835 15.0256C0.0451961 15.1021 0.0857362 15.1722 0.140515 15.2304C0.195294 15.2887 0.262819 15.3333 0.337777 15.361C0.412736 15.3887 0.493085 15.3986 0.572504 15.3899L5.2499 14.8735C5.25324 15.2265 5.27451 15.579 5.31365 15.9298C5.33718 16.1734 5.44523 16.4011 5.61901 16.5733L7.43028 18.3819C7.60247 18.5556 7.82984 18.6637 8.07315 18.6875C8.42167 18.7266 8.77195 18.7479 9.12263 18.7514L8.60941 23.4271C8.60085 23.5066 8.6108 23.5869 8.63847 23.6619C8.66615 23.7369 8.7108 23.8044 8.76893 23.8592C8.82706 23.914 8.89708 23.9546 8.9735 23.9778C9.04993 24.0009 9.13068 24.0061 9.20942 23.9928C10.6457 23.7622 13.9966 22.9134 15.2711 19.998C15.7211 18.9648 15.8133 17.7583 15.7093 16.5518C16.5171 15.9818 17.2737 15.3423 17.9706 14.6408C21.9109 10.7168 24.6291 3.62226 23.8737 0.325661ZM14.0395 9.9597C13.6797 9.59982 13.4346 9.14121 13.3353 8.6419C13.2359 8.14258 13.2867 7.62499 13.4813 7.1546C13.6759 6.6842 14.0055 6.28213 14.4284 5.99924C14.8513 5.71635 15.3485 5.56536 15.8572 5.56536C16.3659 5.56536 16.8631 5.71635 17.286 5.99924C17.7089 6.28213 18.0385 6.6842 18.2331 7.1546C18.4277 7.62499 18.4785 8.14258 18.3791 8.6419C18.2798 9.14121 18.0347 9.59982 17.6749 9.9597C17.4363 10.1988 17.153 10.3886 16.8411 10.518C16.5292 10.6474 16.1948 10.7141 15.8572 10.7141C15.5195 10.7141 15.1852 10.6474 14.8733 10.518C14.5614 10.3886 14.2781 10.1988 14.0395 9.9597Z" fill="white"/>
<path d="M7.58339 19.4688C7.28375 19.7691 6.80312 19.8861 6.22461 19.9862C4.92488 20.2077 3.77716 19.0844 4.01064 17.7702C4.09977 17.272 4.36333 16.5737 4.52736 16.4096C4.56322 16.3744 4.58708 16.3289 4.59557 16.2794C4.60406 16.2299 4.59673 16.1789 4.57464 16.1338C4.55254 16.0887 4.5168 16.0517 4.47249 16.0281C4.42817 16.0045 4.37754 15.9954 4.32778 16.0022C3.60096 16.0911 2.92479 16.4207 2.4069 16.9384C1.12139 18.2252 1 23 1 23C1 23 5.77679 22.8786 7.0623 21.5918C7.58156 21.0743 7.9115 20.3969 7.99895 19.669C8.01919 19.4404 7.74087 19.3042 7.58339 19.4688Z" fill="white"/>
</svg>
